<svg width="16" height="16" viewBox="0 0 16 16" fill="none" xmlns="http://www.w3.org/2000/svg">
<path d="M3.20833 0.5C2.49004 0.5 1.80116 0.785341 1.29325 1.29325C0.785341 1.80116 0.5 2.49004 0.5 3.20833V12.7917C0.5 13.51 0.785341 14.1988 1.29325 14.7067C1.80116 15.2147 2.49004 15.5 3.20833 15.5H12.7917C13.51 15.5 14.1988 15.2147 14.7067 14.7067C15.2147 14.1988 15.5 13.51 15.5 12.7917V3.20833C15.5 2.49004 15.2147 1.80116 14.7067 1.29325C14.1988 0.785341 13.51 0.5 12.7917 0.5H3.20833ZM1.75 5.08333H14.25V12.7917C14.25 13.1784 14.0964 13.5494 13.8229 13.8229C13.5494 14.0964 13.1784 14.25 12.7917 14.25H3.20833C2.82156 14.25 2.45063 14.0964 2.17714 13.8229C1.90365 13.5494 1.75 13.1784 1.75 12.7917V5.08333ZM11.5417 10.0833C11.2654 10.0833 11.0004 10.1931 10.8051 10.3884C10.6097 10.5838 10.5 10.8487 10.5 11.125C10.5 11.4013 10.6097 11.6662 10.8051 11.8616C11.0004 12.0569 11.2654 12.1667 11.5417 12.1667C11.8179 12.1667 12.0829 12.0569 12.2782 11.8616C12.4736 11.6662 12.5833 11.4013 12.5833 11.125C12.5833 10.8487 12.4736 10.5838 12.2782 10.3884C12.0829 10.1931 11.8179 10.0833 11.5417 10.0833V10.0833ZM8 10.0833C7.72373 10.0833 7.45878 10.1931 7.26343 10.3884C7.06808 10.5838 6.95833 10.8487 6.95833 11.125C6.95833 11.4013 7.06808 11.6662 7.26343 11.8616C7.45878 12.0569 7.72373 12.1667 8 12.1667C8.27627 12.1667 8.54122 12.0569 8.73657 11.8616C8.93192 11.6662 9.04167 11.4013 9.04167 11.125C9.04167 10.8487 8.93192 10.5838 8.73657 10.3884C8.54122 10.1931 8.27627 10.0833 8 10.0833V10.0833ZM11.5417 6.75C11.2654 6.75 11.0004 6.85975 10.8051 7.0551C10.6097 7.25045 10.5 7.5154 10.5 7.79167C10.5 8.06793 10.6097 8.33289 10.8051 8.52824C11.0004 8.72359 11.2654 8.83333 11.5417 8.83333C11.8179 8.83333 12.0829 8.72359 12.2782 8.52824C12.4736 8.33289 12.5833 8.06793 12.5833 7.79167C12.5833 7.5154 12.4736 7.25045 12.2782 7.0551C12.0829 6.85975 11.8179 6.75 11.5417 6.75ZM8 6.75C7.72373 6.75 7.45878 6.85975 7.26343 7.0551C7.06808 7.25045 6.95833 7.5154 6.95833 7.79167C6.95833 8.06793 7.06808 8.33289 7.26343 8.52824C7.45878 8.72359 7.72373 8.83333 8 8.83333C8.27627 8.83333 8.54122 8.72359 8.73657 8.52824C8.93192 8.33289 9.04167 8.06793 9.04167 7.79167C9.04167 7.5154 8.93192 7.25045 8.73657 7.0551C8.54122 6.85975 8.27627 6.75 8 6.75V6.75ZM4.45833 6.75C4.18207 6.75 3.91711 6.85975 3.72176 7.0551C3.52641 7.25045 3.41667 7.5154 3.41667 7.79167C3.41667 8.06793 3.52641 8.33289 3.72176 8.52824C3.91711 8.72359 4.18207 8.83333 4.45833 8.83333C4.7346 8.83333 4.99955 8.72359 5.1949 8.52824C5.39025 8.33289 5.5 8.06793 5.5 7.79167C5.5 7.5154 5.39025 7.25045 5.1949 7.0551C4.99955 6.85975 4.7346 6.75 4.45833 6.75ZM3.20833 1.75H12.7917C13.5967 1.75 14.25 2.40333 14.25 3.20833V3.83333H1.75V3.20833C1.75 2.40333 2.40333 1.75 3.20833 1.75Z" fill="#212121"/>
</svg>
