<svg width="20" height="21" viewBox="0 0 20 21" fill="none" xmlns="http://www.w3.org/2000/svg">
<path d="M10.0408 13.4671C11.6903 13.4671 13.0274 12.1275 13.0274 10.475C13.0274 8.82257 11.6903 7.48297 10.0408 7.48297C8.39135 7.48297 7.0542 8.82257 7.0542 10.475C7.0542 12.1275 8.39135 13.4671 10.0408 13.4671Z" stroke="#007AFF" stroke-width="2" stroke-miterlimit="10"/>
<path d="M18.8812 6.6652L17.796 4.80015C17.6737 4.60811 17.4894 4.46378 17.2739 4.3912C17.0584 4.31862 16.8246 4.32214 16.6113 4.40118L13.8238 5.49825C13.6893 5.54521 13.5464 5.56278 13.4045 5.54963C13.2627 5.53647 13.1252 5.49294 13.0015 5.42203C12.8779 5.35113 12.7709 5.25449 12.6878 5.13861C12.6046 5.02272 12.5475 4.89022 12.5198 4.75023L12.0816 1.80808C12.0388 1.58592 11.9219 1.38486 11.7501 1.23806C11.5782 1.09126 11.3616 1.00738 11.1359 1.00017H8.92582C8.69151 0.995896 8.46311 1.07458 8.281 1.22235C8.0989 1.37013 7.97477 1.57757 7.93028 1.80808L7.4923 4.75023C7.46462 4.89022 7.40725 5.02272 7.32411 5.13861C7.24097 5.25449 7.13396 5.35113 7.01033 5.42203C6.88671 5.49294 6.7492 5.53647 6.60736 5.54963C6.46551 5.56278 6.32261 5.54521 6.18809 5.49825L3.40054 4.40118C3.18729 4.32214 2.95352 4.31862 2.73799 4.3912C2.52245 4.46378 2.33821 4.60811 2.21591 4.80015L1.13069 6.6652C1.01361 6.8618 0.973319 7.09484 1.01743 7.31947C1.06154 7.5441 1.18692 7.74442 1.36961 7.88194L3.71918 9.73701C3.83266 9.82355 3.92467 9.93515 3.988 10.0632C4.05132 10.1912 4.08424 10.3322 4.08424 10.475C4.08424 10.6179 4.05132 10.7589 3.988 10.8869C3.92467 11.0149 3.83266 11.1265 3.71918 11.2131L1.36961 13.0681C1.18766 13.2039 1.06254 13.4025 1.0184 13.6255C0.974258 13.8485 1.01424 14.0799 1.13069 14.275L2.21591 16.1501C2.33821 16.3421 2.52245 16.4864 2.73799 16.559C2.95352 16.6316 3.18729 16.6281 3.40054 16.549L6.18809 15.4518C6.32261 15.4049 6.46551 15.3874 6.60736 15.4006C6.7492 15.4137 6.88671 15.4573 7.01033 15.5282C7.13396 15.5991 7.24097 15.6957 7.32411 15.8116C7.40725 15.9275 7.46462 16.0599 7.4923 16.1999L7.93028 19.1919C7.97477 19.4224 8.0989 19.6299 8.281 19.7776C8.46311 19.9254 8.69151 20.0041 8.92582 19.9998H11.096C11.3218 19.9926 11.5383 19.9087 11.7102 19.7619C11.8821 19.6151 11.9989 19.4141 12.0417 19.1919L12.4799 16.1999C12.5076 16.0599 12.565 15.9275 12.6481 15.8116C12.7313 15.6957 12.8383 15.5991 12.9619 15.5282C13.0855 15.4573 13.2228 15.4137 13.3647 15.4006C13.5065 15.3874 13.6494 15.4049 13.7839 15.4518L16.5715 16.549C16.7847 16.6281 17.0187 16.6316 17.2343 16.559C17.4498 16.4864 17.634 16.3421 17.7563 16.1501L18.8413 14.275C18.9566 14.0805 18.997 13.8504 18.9548 13.6282C18.9127 13.4059 18.7909 13.2067 18.6124 13.0681L16.2531 11.2131C16.1396 11.1265 16.0476 11.0149 15.9843 10.8869C15.9209 10.7589 15.888 10.6179 15.888 10.475C15.888 10.3322 15.9209 10.1912 15.9843 10.0632C16.0476 9.93515 16.1396 9.82355 16.2531 9.73701L18.6124 7.88194C18.7982 7.74734 18.9284 7.54913 18.9779 7.32483C19.0275 7.10052 18.993 6.86578 18.8812 6.6652V6.6652Z" stroke="#007AFF" stroke-width="2" stroke-linejoin="round"/>
</svg>
