<svg width="16" height="13" viewBox="0 0 16 13" fill="none" xmlns="http://www.w3.org/2000/svg">
<path d="M1.6 13C1.16 13 0.783201 12.8407 0.469601 12.5222C0.156001 12.2037 -0.000531975 11.8213 1.35823e-06 11.375V1.625C1.35823e-06 1.17813 0.156801 0.795439 0.470401 0.476939C0.784001 0.158439 1.16053 -0.000540287 1.6 1.37946e-06H14.4C14.84 1.37946e-06 15.2168 0.159251 15.5304 0.477751C15.844 0.796251 16.0005 1.17867 16 1.625V11.375C16 11.8219 15.8432 12.2046 15.5296 12.5231C15.216 12.8416 14.8395 13.0005 14.4 13H1.6ZM8 7.17031C8.06667 7.17031 8.1368 7.16002 8.2104 7.13944C8.284 7.11885 8.35387 7.08852 8.42 7.04844L14.08 3.45313C14.1867 3.38542 14.2667 3.30065 14.32 3.19881C14.3733 3.09698 14.4 2.9854 14.4 2.86406C14.4 2.59323 14.2867 2.39011 14.06 2.25469C13.8333 2.11927 13.6 2.12604 13.36 2.275L8 5.6875L2.64 2.275C2.4 2.12604 2.16667 2.12279 1.94 2.26525C1.71333 2.40771 1.6 2.60731 1.6 2.86406C1.6 2.99948 1.62667 3.1181 1.68 3.21994C1.73333 3.32177 1.81333 3.3995 1.92 3.45313L7.58 7.04844C7.64667 7.08906 7.7168 7.11967 7.7904 7.14025C7.864 7.16083 7.93387 7.17085 8 7.17031Z" fill="white"/>
</svg>
