<svg width="15" height="18" viewBox="0 0 15 18" fill="none" xmlns="http://www.w3.org/2000/svg">
<path d="M13 1H1.8C1.58783 1 1.38434 1.08429 1.23431 1.23431C1.08429 1.38434 1 1.58783 1 1.8V16.2C1 16.4122 1.08429 16.6157 1.23431 16.7657C1.38434 16.9157 1.58783 17 1.8 17H13C13.2122 17 13.4157 16.9157 13.5657 16.7657C13.7157 16.6157 13.8 16.4122 13.8 16.2V1.8C13.8 1.58783 13.7157 1.38434 13.5657 1.23431C13.4157 1.08429 13.2122 1 13 1Z" fill="white" stroke="white" stroke-linecap="round" stroke-linejoin="round"/>
<path d="M4.59973 11.4016H10.1997M4.59973 13.8016H7.39973M9.79973 4.60156L6.59973 7.80156L4.99973 6.20156" stroke="black" stroke-linecap="round" stroke-linejoin="round"/>
</svg>
