<svg width="16" height="21" viewBox="0 0 16 21" fill="none" xmlns="http://www.w3.org/2000/svg">
<path d="M2 21C1.45 21 0.979002 20.804 0.587002 20.412C0.195002 20.02 -0.000664969 19.5493 1.69779e-06 19V9C1.69779e-06 8.45 0.196001 7.979 0.588001 7.587C0.980001 7.195 1.45067 6.99933 2 7H11V5C11 4.16667 10.7083 3.45833 10.125 2.875C9.54167 2.29167 8.83334 2 8 2C7.31667 2 6.71234 2.20433 6.187 2.613C5.66167 3.02167 5.308 3.534 5.126 4.15C5.04267 4.4 4.91334 4.60433 4.738 4.763C4.56267 4.92167 4.35867 5.00067 4.126 5C3.79267 5 3.526 4.88733 3.326 4.662C3.126 4.43667 3.05933 4.18267 3.126 3.9C3.37533 2.78333 3.95 1.854 4.85 1.112C5.75 0.370001 6.8 -0.000665769 8 8.97666e-07C9.38334 8.97666e-07 10.5627 0.487668 11.538 1.463C12.5133 2.43833 13.0007 3.61733 13 5V7H14C14.55 7 15.021 7.196 15.413 7.588C15.805 7.98 16.0007 8.45067 16 9V19C16 19.55 15.804 20.021 15.412 20.413C15.02 20.805 14.5493 21.0007 14 21H2ZM8 16C8.55 16 9.021 15.804 9.413 15.412C9.805 15.02 10.0007 14.5493 10 14C10 13.45 9.804 12.979 9.412 12.587C9.02 12.195 8.54934 11.9993 8 12C7.45 12 6.979 12.196 6.587 12.588C6.195 12.98 5.99934 13.4507 6 14C6 14.55 6.196 15.021 6.588 15.413C6.98 15.805 7.45067 16.0007 8 16Z" fill="white"/>
</svg>
